<svg xmlns="http://www.w3.org/2000/svg" xmlns:xlink="http://www.w3.org/1999/xlink" width="500" zoomAndPan="magnify" viewBox="0 0 375 374.999991" height="500" preserveAspectRatio="xMidYMid meet" version="1.0"><defs><g/><clipPath id="2d8c35353a"><path d="M 37.5 37.5 L 337.5 37.5 L 337.5 337.5 L 37.5 337.5 Z M 37.5 37.5 " clip-rule="nonzero"/></clipPath><clipPath id="863abcdc7c"><path d="M 187.5 37.5 C 104.65625 37.5 37.5 104.65625 37.5 187.5 C 37.5 270.34375 104.65625 337.5 187.5 337.5 C 270.34375 337.5 337.5 270.34375 337.5 187.5 C 337.5 104.65625 270.34375 37.5 187.5 37.5 Z M 187.5 37.5 " clip-rule="nonzero"/></clipPath><clipPath id="218796f968"><path d="M 0.5 0.5 L 300.5 0.5 L 300.5 300.5 L 0.5 300.5 Z M 0.5 0.5 " clip-rule="nonzero"/></clipPath><clipPath id="55fbbf954a"><path d="M 150.5 0.5 C 67.65625 0.5 0.5 67.65625 0.5 150.5 C 0.5 233.34375 67.65625 300.5 150.5 300.5 C 233.34375 300.5 300.5 233.34375 300.5 150.5 C 300.5 67.65625 233.34375 0.5 150.5 0.5 Z M 150.5 0.5 " clip-rule="nonzero"/></clipPath><linearGradient x1="128" gradientTransform="matrix(1.171875, 0, 0, 1.171875, 0.500002, 0.499998)" y1="0" x2="128" gradientUnits="userSpaceOnUse" y2="256" id="28a7c99c13"><stop stop-opacity="1" stop-color="rgb(79.998779%, 69.018555%, 45.489502%)" offset="0"/><stop stop-opacity="1" stop-color="rgb(79.998779%, 69.018555%, 45.489502%)" offset="0.25"/><stop stop-opacity="1" stop-color="rgb(80.14679%, 69.142151%, 45.513916%)" offset="0.375"/><stop stop-opacity="1" stop-color="rgb(80.404663%, 69.3573%, 45.556641%)" offset="0.40625"/><stop stop-opacity="1" stop-color="rgb(80.62439%, 69.540405%, 45.593262%)" offset="0.4375"/><stop stop-opacity="1" stop-color="rgb(80.844116%, 69.723511%, 45.629883%)" offset="0.46875"/><stop stop-opacity="1" stop-color="rgb(81.063843%, 69.908142%, 45.666504%)" offset="0.5"/><stop stop-opacity="1" stop-color="rgb(81.283569%, 70.091248%, 45.703125%)" offset="0.53125"/><stop stop-opacity="1" stop-color="rgb(81.503296%, 70.274353%, 45.73822%)" offset="0.5625"/><stop stop-opacity="1" stop-color="rgb(81.724548%, 70.457458%, 45.774841%)" offset="0.59375"/><stop stop-opacity="1" stop-color="rgb(81.944275%, 70.640564%, 45.811462%)" offset="0.625"/><stop stop-opacity="1" stop-color="rgb(82.164001%, 70.823669%, 45.848083%)" offset="0.65625"/><stop stop-opacity="1" stop-color="rgb(82.170105%, 70.793152%, 45.726013%)" offset="0.671875"/><stop stop-opacity="1" stop-color="rgb(81.842041%, 70.420837%, 45.352173%)" offset="0.675781"/><stop stop-opacity="1" stop-color="rgb(81.617737%, 70.172119%, 45.117188%)" offset="0.679688"/><stop stop-opacity="1" stop-color="rgb(81.391907%, 69.923401%, 44.882202%)" offset="0.683594"/><stop stop-opacity="1" stop-color="rgb(81.166077%, 69.674683%, 44.648743%)" offset="0.6875"/><stop stop-opacity="1" stop-color="rgb(80.940247%, 69.425964%, 44.413757%)" offset="0.691406"/><stop stop-opacity="1" stop-color="rgb(80.715942%, 69.178772%, 44.178772%)" offset="0.695313"/><stop stop-opacity="1" stop-color="rgb(80.490112%, 68.930054%, 43.943787%)" offset="0.699219"/><stop stop-opacity="1" stop-color="rgb(80.265808%, 68.681335%, 43.710327%)" offset="0.703125"/><stop stop-opacity="1" stop-color="rgb(80.039978%, 68.432617%, 43.475342%)" offset="0.707031"/><stop stop-opacity="1" stop-color="rgb(79.814148%, 68.183899%, 43.240356%)" offset="0.710938"/><stop stop-opacity="1" stop-color="rgb(79.588318%, 67.935181%, 43.005371%)" offset="0.714844"/><stop stop-opacity="1" stop-color="rgb(79.364014%, 67.687988%, 42.770386%)" offset="0.71875"/><stop stop-opacity="1" stop-color="rgb(79.138184%, 67.43927%, 42.5354%)" offset="0.722656"/><stop stop-opacity="1" stop-color="rgb(78.913879%, 67.190552%, 42.301941%)" offset="0.726563"/><stop stop-opacity="1" stop-color="rgb(78.688049%, 66.941833%, 42.066956%)" offset="0.730469"/><stop stop-opacity="1" stop-color="rgb(78.462219%, 66.694641%, 41.83197%)" offset="0.734375"/><stop stop-opacity="1" stop-color="rgb(78.236389%, 66.445923%, 41.596985%)" offset="0.738281"/><stop stop-opacity="1" stop-color="rgb(78.012085%, 66.197205%, 41.363525%)" offset="0.742188"/><stop stop-opacity="1" stop-color="rgb(77.786255%, 65.948486%, 41.12854%)" offset="0.746094"/><stop stop-opacity="1" stop-color="rgb(77.560425%, 65.699768%, 40.893555%)" offset="0.75"/><stop stop-opacity="1" stop-color="rgb(77.334595%, 65.45105%, 40.658569%)" offset="0.753906"/><stop stop-opacity="1" stop-color="rgb(77.110291%, 65.203857%, 40.42511%)" offset="0.757812"/><stop stop-opacity="1" stop-color="rgb(76.88446%, 64.955139%, 40.190125%)" offset="0.761719"/><stop stop-opacity="1" stop-color="rgb(76.660156%, 64.706421%, 39.955139%)" offset="0.765625"/><stop stop-opacity="1" stop-color="rgb(76.434326%, 64.457703%, 39.720154%)" offset="0.769531"/><stop stop-opacity="1" stop-color="rgb(76.208496%, 64.208984%, 39.486694%)" offset="0.773438"/><stop stop-opacity="1" stop-color="rgb(75.982666%, 63.960266%, 39.251709%)" offset="0.777344"/><stop stop-opacity="1" stop-color="rgb(75.758362%, 63.713074%, 39.016724%)" offset="0.78125"/><stop stop-opacity="1" stop-color="rgb(75.532532%, 63.464355%, 38.781738%)" offset="0.785156"/><stop stop-opacity="1" stop-color="rgb(75.308228%, 63.215637%, 38.548279%)" offset="0.789062"/><stop stop-opacity="1" stop-color="rgb(75.082397%, 62.966919%, 38.313293%)" offset="0.792969"/><stop stop-opacity="1" stop-color="rgb(74.856567%, 62.718201%, 38.078308%)" offset="0.796875"/><stop stop-opacity="1" stop-color="rgb(74.630737%, 62.469482%, 37.843323%)" offset="0.800781"/><stop stop-opacity="1" stop-color="rgb(74.406433%, 62.22229%, 37.609863%)" offset="0.804688"/><stop stop-opacity="1" stop-color="rgb(74.180603%, 61.973572%, 37.374878%)" offset="0.808594"/><stop stop-opacity="1" stop-color="rgb(73.956299%, 61.724854%, 37.139893%)" offset="0.8125"/><stop stop-opacity="1" stop-color="rgb(73.730469%, 61.476135%, 36.904907%)" offset="0.816406"/><stop stop-opacity="1" stop-color="rgb(73.504639%, 61.227417%, 36.671448%)" offset="0.820312"/><stop stop-opacity="1" stop-color="rgb(73.278809%, 60.978699%, 36.436462%)" offset="0.824219"/><stop stop-opacity="1" stop-color="rgb(73.054504%, 60.731506%, 36.201477%)" offset="0.828125"/><stop stop-opacity="1" stop-color="rgb(72.828674%, 60.482788%, 35.966492%)" offset="0.832031"/><stop stop-opacity="1" stop-color="rgb(72.60437%, 60.23407%, 35.733032%)" offset="0.835938"/><stop stop-opacity="1" stop-color="rgb(72.37854%, 59.985352%, 35.498047%)" offset="0.839844"/><stop stop-opacity="1" stop-color="rgb(72.15271%, 59.736633%, 35.263062%)" offset="0.84375"/><stop stop-opacity="1" stop-color="rgb(71.92688%, 59.487915%, 35.028076%)" offset="0.847656"/><stop stop-opacity="1" stop-color="rgb(71.702576%, 59.240723%, 34.794617%)" offset="0.851562"/><stop stop-opacity="1" stop-color="rgb(71.476746%, 58.992004%, 34.559631%)" offset="0.855469"/><stop stop-opacity="1" stop-color="rgb(71.250916%, 58.743286%, 34.324646%)" offset="0.859375"/><stop stop-opacity="1" stop-color="rgb(71.025085%, 58.494568%, 34.089661%)" offset="0.863281"/><stop stop-opacity="1" stop-color="rgb(70.800781%, 58.24585%, 33.856201%)" offset="0.867188"/><stop stop-opacity="1" stop-color="rgb(70.574951%, 57.997131%, 33.621216%)" offset="0.871094"/><stop stop-opacity="1" stop-color="rgb(70.350647%, 57.749939%, 33.38623%)" offset="0.875"/><stop stop-opacity="1" stop-color="rgb(70.124817%, 57.501221%, 33.151245%)" offset="0.878906"/><stop stop-opacity="1" stop-color="rgb(69.898987%, 57.252502%, 32.917786%)" offset="0.882812"/><stop stop-opacity="1" stop-color="rgb(69.673157%, 57.003784%, 32.6828%)" offset="0.886719"/><stop stop-opacity="1" stop-color="rgb(69.448853%, 56.756592%, 32.447815%)" offset="0.890625"/><stop stop-opacity="1" stop-color="rgb(69.223022%, 56.507874%, 32.21283%)" offset="0.894531"/><stop stop-opacity="1" stop-color="rgb(68.998718%, 56.259155%, 31.97937%)" offset="0.898438"/><stop stop-opacity="1" stop-color="rgb(68.772888%, 56.010437%, 31.744385%)" offset="0.902344"/><stop stop-opacity="1" stop-color="rgb(68.547058%, 55.761719%, 31.509399%)" offset="0.90625"/><stop stop-opacity="1" stop-color="rgb(68.321228%, 55.513%, 31.274414%)" offset="0.910156"/><stop stop-opacity="1" stop-color="rgb(68.096924%, 55.265808%, 31.040955%)" offset="0.914062"/><stop stop-opacity="1" stop-color="rgb(67.871094%, 55.01709%, 30.805969%)" offset="0.917969"/><stop stop-opacity="1" stop-color="rgb(67.64679%, 54.768372%, 30.570984%)" offset="0.921875"/><stop stop-opacity="1" stop-color="rgb(67.420959%, 54.519653%, 30.335999%)" offset="0.925781"/><stop stop-opacity="1" stop-color="rgb(67.195129%, 54.270935%, 30.102539%)" offset="0.929688"/><stop stop-opacity="1" stop-color="rgb(66.969299%, 54.022217%, 29.867554%)" offset="0.933594"/><stop stop-opacity="1" stop-color="rgb(66.744995%, 53.775024%, 29.632568%)" offset="0.9375"/><stop stop-opacity="1" stop-color="rgb(66.519165%, 53.526306%, 29.397583%)" offset="0.941406"/><stop stop-opacity="1" stop-color="rgb(66.293335%, 53.277588%, 29.164124%)" offset="0.945312"/><stop stop-opacity="1" stop-color="rgb(66.067505%, 53.02887%, 28.929138%)" offset="0.949219"/><stop stop-opacity="1" stop-color="rgb(65.843201%, 52.780151%, 28.694153%)" offset="0.953125"/><stop stop-opacity="1" stop-color="rgb(65.617371%, 52.531433%, 28.459167%)" offset="0.957031"/><stop stop-opacity="1" stop-color="rgb(65.393066%, 52.284241%, 28.225708%)" offset="0.960938"/><stop stop-opacity="1" stop-color="rgb(65.167236%, 52.035522%, 27.990723%)" offset="0.964844"/><stop stop-opacity="1" stop-color="rgb(64.941406%, 51.786804%, 27.755737%)" offset="0.96875"/><stop stop-opacity="1" stop-color="rgb(64.715576%, 51.538086%, 27.520752%)" offset="0.972656"/><stop stop-opacity="1" stop-color="rgb(64.491272%, 51.289368%, 27.287292%)" offset="0.976562"/><stop stop-opacity="1" stop-color="rgb(64.265442%, 51.040649%, 27.052307%)" offset="0.980469"/><stop stop-opacity="1" stop-color="rgb(64.041138%, 50.793457%, 26.817322%)" offset="0.984375"/><stop stop-opacity="1" stop-color="rgb(63.815308%, 50.544739%, 26.582336%)" offset="0.988281"/><stop stop-opacity="1" stop-color="rgb(63.589478%, 50.296021%, 26.348877%)" offset="0.992188"/><stop stop-opacity="1" stop-color="rgb(63.363647%, 50.047302%, 26.113892%)" offset="0.996094"/><stop stop-opacity="1" stop-color="rgb(63.139343%, 49.798584%, 25.878906%)" offset="1"/></linearGradient><clipPath id="3e6d13642a"><rect x="0" width="301" y="0" height="301"/></clipPath><clipPath id="cb5757bd34"><path d="M 42.605469 42.605469 L 332.105469 42.605469 L 332.105469 332.105469 L 42.605469 332.105469 Z M 42.605469 42.605469 " clip-rule="nonzero"/></clipPath><clipPath id="c3b32886f4"><path d="M 187.496094 42.605469 C 107.472656 42.605469 42.605469 107.472656 42.605469 187.496094 C 42.605469 267.515625 107.472656 332.386719 187.496094 332.386719 C 267.515625 332.386719 332.386719 267.515625 332.386719 187.496094 C 332.386719 107.472656 267.515625 42.605469 187.496094 42.605469 Z M 187.496094 42.605469 " clip-rule="nonzero"/></clipPath><clipPath id="205a9b384d"><path d="M 45.917969 45.917969 L 329.078125 45.917969 L 329.078125 329.078125 L 45.917969 329.078125 Z M 45.917969 45.917969 " clip-rule="nonzero"/></clipPath><clipPath id="71f6a3aac3"><path d="M 187.496094 45.917969 C 109.304688 45.917969 45.917969 109.304688 45.917969 187.496094 C 45.917969 265.6875 109.304688 329.078125 187.496094 329.078125 C 265.6875 329.078125 329.078125 265.6875 329.078125 187.496094 C 329.078125 109.304688 265.6875 45.917969 187.496094 45.917969 Z M 187.496094 45.917969 " clip-rule="nonzero"/></clipPath><clipPath id="7b1101897a"><path d="M 87.402344 87.402344 L 287.59375 87.402344 L 287.59375 287.59375 L 87.402344 287.59375 Z M 87.402344 87.402344 " clip-rule="nonzero"/></clipPath><clipPath id="9e0eba5d57"><path d="M 187.496094 87.402344 C 132.214844 87.402344 87.402344 132.214844 87.402344 187.496094 C 87.402344 242.777344 132.214844 287.59375 187.496094 287.59375 C 242.777344 287.59375 287.59375 242.777344 287.59375 187.496094 C 287.59375 132.214844 242.777344 87.402344 187.496094 87.402344 Z M 187.496094 87.402344 " clip-rule="nonzero"/></clipPath><clipPath id="e90ad988c1"><path d="M 90.550781 90.550781 L 284.449219 90.550781 L 284.449219 284.449219 L 90.550781 284.449219 Z M 90.550781 90.550781 " clip-rule="nonzero"/></clipPath><clipPath id="3b29b32898"><path d="M 187.5 90.550781 C 133.957031 90.550781 90.550781 133.957031 90.550781 187.5 C 90.550781 241.042969 133.957031 284.449219 187.5 284.449219 C 241.042969 284.449219 284.449219 241.042969 284.449219 187.5 C 284.449219 133.957031 241.042969 90.550781 187.5 90.550781 Z M 187.5 90.550781 " clip-rule="nonzero"/></clipPath><clipPath id="605a3d2fce"><path d="M 0.550781 0.550781 L 194.449219 0.550781 L 194.449219 194.449219 L 0.550781 194.449219 Z M 0.550781 0.550781 " clip-rule="nonzero"/></clipPath><clipPath id="196a307c90"><path d="M 97.5 0.550781 C 43.957031 0.550781 0.550781 43.957031 0.550781 97.5 C 0.550781 151.042969 43.957031 194.449219 97.5 194.449219 C 151.042969 194.449219 194.449219 151.042969 194.449219 97.5 C 194.449219 43.957031 151.042969 0.550781 97.5 0.550781 Z M 97.5 0.550781 " clip-rule="nonzero"/></clipPath><clipPath id="bed72d90c9"><rect x="0" width="195" y="0" height="195"/></clipPath><clipPath id="862b53366b"><path d="M 0.238281 130 L 17 130 L 17 140 L 0.238281 140 Z M 0.238281 130 " clip-rule="nonzero"/></clipPath><clipPath id="b1d7791729"><path d="M 0.238281 115 L 18 115 L 18 129 L 0.238281 129 Z M 0.238281 115 " clip-rule="nonzero"/></clipPath><clipPath id="948bb1e8d8"><rect x="0" width="267" y="0" height="204"/></clipPath><clipPath id="6de470ec85"><path d="M 180.972656 301.355469 L 193.722656 301.355469 L 193.722656 314.105469 L 180.972656 314.105469 Z M 180.972656 301.355469 " clip-rule="nonzero"/></clipPath><clipPath id="0e5c9ed56c"><path d="M 112.5 145 L 157 145 L 157 158 L 112.5 158 Z M 112.5 145 " clip-rule="nonzero"/></clipPath><clipPath id="e14c4eed45"><path d="M 218 145 L 262.5 145 L 262.5 158 L 218 158 Z M 218 145 " clip-rule="nonzero"/></clipPath><clipPath id="c31192d423"><path d="M 179 235 L 193 235 L 193 263.304688 L 179 263.304688 Z M 179 235 " clip-rule="nonzero"/></clipPath><clipPath id="47f6e8b335"><path d="M 181 132.054688 L 193 132.054688 L 193 144 L 181 144 Z M 181 132.054688 " clip-rule="nonzero"/></clipPath></defs><g clip-path="url(#2d8c35353a)"><g clip-path="url(#863abcdc7c)"><g transform="matrix(1, 0, 0, 1, 37, 37)"><g clip-path="url(#3e6d13642a)"><g clip-path="url(#218796f968)"><g clip-path="url(#55fbbf954a)"><path fill="url(#28a7c99c13)" d="M 0.5 0.5 L 0.5 300.5 L 300.5 300.5 L 300.5 0.5 Z M 0.5 0.5 " fill-rule="nonzero"/></g></g></g></g></g></g><g clip-path="url(#cb5757bd34)"><g clip-path="url(#c3b32886f4)"><path stroke-linecap="butt" transform="matrix(0.75, 0, 0, 0.75, 42.604075, 42.60407)" fill="none" stroke-linejoin="miter" d="M 193.189372 0.001865 C 86.491448 0.001865 0.001859 86.491454 0.001859 193.189378 C 0.001859 299.882093 86.491448 386.37689 193.189372 386.37689 C 299.882087 386.37689 386.376884 299.882093 386.376884 193.189378 C 386.376884 86.491454 299.882087 0.001865 193.189372 0.001865 Z M 193.189372 0.001865 " stroke="#001a6e" stroke-width="2" stroke-opacity="1" stroke-miterlimit="4"/></g></g><g clip-path="url(#205a9b384d)"><g clip-path="url(#71f6a3aac3)"><path stroke-linecap="butt" transform="matrix(0.75, 0, 0, 0.75, 45.91629, 45.916286)" fill="none" stroke-linejoin="miter" d="M 188.773084 0.00224395 C 84.517869 0.00224395 0.00223795 84.517875 0.00223795 188.77309 C 0.00223795 293.028305 84.517869 377.549144 188.773084 377.549144 C 293.028299 377.549144 377.549138 293.028305 377.549138 188.77309 C 377.549138 84.517875 293.028299 0.00224395 188.773084 0.00224395 Z M 188.773084 0.00224395 " stroke="#211f50" stroke-width="7" stroke-opacity="1" stroke-miterlimit="4"/></g></g><g clip-path="url(#7b1101897a)"><g clip-path="url(#9e0eba5d57)"><path stroke-linecap="butt" transform="matrix(0.75, 0, 0, 0.75, 87.400451, 87.400446)" fill="none" stroke-linejoin="miter" d="M 133.460866 0.00252999 C 59.752528 0.00252999 0.00252399 59.752534 0.00252399 133.460872 C 0.00252399 207.16921 59.752528 266.924423 133.460866 266.924423 C 207.169204 266.924423 266.924417 207.16921 266.924417 133.460872 C 266.924417 59.752534 207.169204 0.00252999 133.460866 0.00252999 Z M 133.460866 0.00252999 " stroke="#211f50" stroke-width="6" stroke-opacity="1" stroke-miterlimit="4"/></g></g><g clip-path="url(#e90ad988c1)"><g clip-path="url(#3b29b32898)"><g transform="matrix(1, 0, 0, 1, 90, 90)"><g clip-path="url(#bed72d90c9)"><g clip-path="url(#605a3d2fce)"><g clip-path="url(#196a307c90)"><path fill="#211f50" d="M 0.550781 0.550781 L 194.449219 0.550781 L 194.449219 194.449219 L 0.550781 194.449219 Z M 0.550781 0.550781 " fill-opacity="1" fill-rule="nonzero"/></g></g></g></g></g></g><g transform="matrix(1, 0, 0, 1, 54, 54)"><g clip-path="url(#948bb1e8d8)"><g fill="#001a6e" fill-opacity="1"><g transform="translate(33.401592, 195.516862)"><g><path d="M -6.6875 -7.578125 L -4.8125 -8.625 L -0.859375 -1.546875 L -13.9375 5.75 L -17.78125 -1.125 L -15.90625 -2.171875 L -13.21875 2.640625 L -9.671875 0.65625 L -12.203125 -3.890625 L -10.34375 -4.921875 L -7.8125 -0.375 L -3.890625 -2.5625 Z M -6.6875 -7.578125 "/></g></g></g><g fill="#001a6e" fill-opacity="1"><g transform="translate(28.13935, 186.102891)"><g><path d="M -5.96875 -8.140625 L -4.015625 -9.015625 L -0.71875 -1.609375 L -14.390625 4.484375 L -15.359375 2.3125 L -3.640625 -2.90625 Z M -5.96875 -8.140625 "/></g></g></g><g fill="#001a6e" fill-opacity="1"><g transform="translate(23.972822, 176.761672)"><g><path d="M -4.765625 -7.15625 L -2.75 -7.859375 L -0.453125 -1.296875 L -2.46875 -0.59375 L -3.234375 -2.765625 L -13.328125 0.765625 L -12.5625 2.9375 L -14.578125 3.640625 L -16.875 -2.921875 L -14.859375 -3.625 L -14.09375 -1.453125 L -4 -4.984375 Z M -4.765625 -7.15625 "/></g></g></g><g fill="#001a6e" fill-opacity="1"><g transform="translate(20.872922, 168.02995)"><g><path d="M -14.0625 -3.15625 L -1.640625 -6.375 L -1.0625 -4.078125 L -13.484375 -0.859375 L -12.46875 3.015625 L -14.53125 3.546875 L -17.140625 -6.5 L -15.078125 -7.03125 Z M -14.0625 -3.15625 "/></g></g></g><g fill="#001a6e" fill-opacity="1"><g transform="translate(18.260147, 158.038752)"><g><path d="M -3.71875 -9.40625 L -1.609375 -9.75 L -0.28125 -1.734375 L -15.046875 0.703125 L -16.328125 -7.078125 L -14.21875 -7.4375 L -13.328125 -2 L -9.328125 -2.65625 L -10.171875 -7.796875 L -8.0625 -8.140625 L -7.21875 -3 L -2.78125 -3.734375 Z M -3.71875 -9.40625 "/></g></g></g><g fill="#001a6e" fill-opacity="1"><g transform="translate(16.558855, 147.316722)"><g/></g></g><g clip-path="url(#862b53366b)"><g fill="#001a6e" fill-opacity="1"><g transform="translate(15.880912, 140.725539)"><g><path d="M -4.21875 -9.953125 C -2.882812 -9.972656 -1.828125 -9.523438 -1.046875 -8.609375 C -0.273438 -7.691406 0.125 -6.414062 0.15625 -4.78125 C 0.15625 -4.144531 0.0976562 -3.53125 -0.015625 -2.9375 C -0.140625 -2.34375 -0.328125 -1.75 -0.578125 -1.15625 L -2.9375 -1.125 C -2.59375 -1.675781 -2.332031 -2.265625 -2.15625 -2.890625 C -1.976562 -3.515625 -1.890625 -4.148438 -1.890625 -4.796875 C -1.910156 -5.671875 -2.097656 -6.347656 -2.453125 -6.828125 C -2.816406 -7.316406 -3.3125 -7.554688 -3.9375 -7.546875 C -4.414062 -7.546875 -4.851562 -7.375 -5.25 -7.03125 C -5.644531 -6.695312 -6.144531 -5.957031 -6.75 -4.8125 C -7.144531 -4.050781 -7.457031 -3.5 -7.6875 -3.15625 C -7.925781 -2.8125 -8.175781 -2.507812 -8.4375 -2.25 C -8.8125 -1.875 -9.226562 -1.585938 -9.6875 -1.390625 C -10.144531 -1.191406 -10.648438 -1.09375 -11.203125 -1.09375 C -12.429688 -1.070312 -13.410156 -1.488281 -14.140625 -2.34375 C -14.878906 -3.195312 -15.257812 -4.359375 -15.28125 -5.828125 C -15.28125 -6.429688 -15.222656 -7.003906 -15.109375 -7.546875 C -14.992188 -8.097656 -14.828125 -8.609375 -14.609375 -9.078125 L -12.125 -9.109375 C -12.457031 -8.722656 -12.71875 -8.222656 -12.90625 -7.609375 C -13.09375 -7.003906 -13.1875 -6.378906 -13.1875 -5.734375 C -13.164062 -5.003906 -13.003906 -4.445312 -12.703125 -4.0625 C -12.398438 -3.675781 -11.984375 -3.484375 -11.453125 -3.484375 C -10.992188 -3.492188 -10.578125 -3.660156 -10.203125 -3.984375 C -9.835938 -4.304688 -9.378906 -5.023438 -8.828125 -6.140625 C -8.429688 -6.910156 -8.109375 -7.476562 -7.859375 -7.84375 C -7.617188 -8.207031 -7.367188 -8.519531 -7.109375 -8.78125 C -6.710938 -9.164062 -6.273438 -9.453125 -5.796875 -9.640625 C -5.328125 -9.835938 -4.800781 -9.941406 -4.21875 -9.953125 Z M -4.21875 -9.953125 "/></g></g></g></g><g clip-path="url(#b1d7791729)"><g fill="#001a6e" fill-opacity="1"><g transform="translate(15.597948, 130.083095)"><g><path d="M 0.90625 -7.4375 C 0.789062 -6.195312 0.507812 -5.195312 0.0625 -4.4375 C -0.382812 -3.6875 -1.015625 -3.140625 -1.828125 -2.796875 C -2.410156 -2.546875 -3.128906 -2.394531 -3.984375 -2.34375 C -4.847656 -2.289062 -6.007812 -2.332031 -7.46875 -2.46875 L -14.75 -3.140625 L -14.53125 -5.5 L -7.046875 -4.8125 C -5.960938 -4.707031 -5.160156 -4.660156 -4.640625 -4.671875 C -4.128906 -4.679688 -3.6875 -4.738281 -3.3125 -4.84375 C -2.675781 -5.007812 -2.191406 -5.316406 -1.859375 -5.765625 C -1.535156 -6.222656 -1.335938 -6.851562 -1.265625 -7.65625 C -1.191406 -8.445312 -1.273438 -9.09375 -1.515625 -9.59375 C -1.753906 -10.09375 -2.171875 -10.476562 -2.765625 -10.75 C -3.109375 -10.914062 -3.523438 -11.046875 -4.015625 -11.140625 C -4.515625 -11.242188 -5.316406 -11.347656 -6.421875 -11.453125 L -13.90625 -12.140625 L -13.6875 -14.5 L -6.40625 -13.828125 C -5.019531 -13.703125 -3.90625 -13.53125 -3.0625 -13.3125 C -2.226562 -13.09375 -1.535156 -12.800781 -0.984375 -12.4375 C -0.222656 -11.9375 0.304688 -11.273438 0.609375 -10.453125 C 0.921875 -9.628906 1.019531 -8.625 0.90625 -7.4375 Z M 0.90625 -7.4375 "/></g></g></g></g><g fill="#001a6e" fill-opacity="1"><g transform="translate(16.944036, 115.7725)"><g><path d="M -4.765625 -5.21875 L 0.84375 -4.046875 L 0.359375 -1.734375 L -14.296875 -4.796875 L -13.515625 -8.515625 C -13.140625 -10.316406 -12.488281 -11.601562 -11.5625 -12.375 C -10.644531 -13.144531 -9.46875 -13.382812 -8.03125 -13.09375 C -7.0625 -12.882812 -6.273438 -12.492188 -5.671875 -11.921875 C -5.066406 -11.359375 -4.660156 -10.632812 -4.453125 -9.75 L 2.5 -12.015625 L 1.9375 -9.3125 L -4.390625 -7.46875 C -4.390625 -7.257812 -4.40625 -7.046875 -4.4375 -6.828125 C -4.476562 -6.617188 -4.519531 -6.398438 -4.5625 -6.171875 Z M -11.421875 -8.078125 L -11.71875 -6.671875 L -6.8125 -5.640625 L -6.5625 -6.84375 C -6.332031 -7.945312 -6.363281 -8.828125 -6.65625 -9.484375 C -6.957031 -10.140625 -7.515625 -10.550781 -8.328125 -10.71875 C -9.117188 -10.882812 -9.78125 -10.738281 -10.3125 -10.28125 C -10.84375 -9.820312 -11.210938 -9.085938 -11.421875 -8.078125 Z M -11.421875 -8.078125 "/></g></g></g><g fill="#001a6e" fill-opacity="1"><g transform="translate(19.390466, 103.704829)"><g><path d="M -5.078125 -9.109375 L -3.421875 -14.1875 L 3.0625 -12.078125 C 3.144531 -11.234375 3.144531 -10.394531 3.0625 -9.5625 C 2.976562 -8.726562 2.820312 -7.96875 2.59375 -7.28125 C 1.957031 -5.300781 0.804688 -3.945312 -0.859375 -3.21875 C -2.523438 -2.5 -4.503906 -2.515625 -6.796875 -3.265625 C -9.097656 -4.015625 -10.703125 -5.1875 -11.609375 -6.78125 C -12.523438 -8.375 -12.65625 -10.171875 -12 -12.171875 C -11.78125 -12.835938 -11.484375 -13.488281 -11.109375 -14.125 C -10.742188 -14.769531 -10.3125 -15.382812 -9.8125 -15.96875 L -7.609375 -15.25 C -8.160156 -14.6875 -8.632812 -14.085938 -9.03125 -13.453125 C -9.4375 -12.816406 -9.738281 -12.191406 -9.9375 -11.578125 C -10.394531 -10.191406 -10.289062 -8.96875 -9.625 -7.90625 C -8.96875 -6.851562 -7.773438 -6.046875 -6.046875 -5.484375 C -4.328125 -4.921875 -2.878906 -4.867188 -1.703125 -5.328125 C -0.535156 -5.796875 0.273438 -6.726562 0.734375 -8.125 C 0.847656 -8.476562 0.929688 -8.84375 0.984375 -9.21875 C 1.046875 -9.59375 1.0625 -9.9375 1.03125 -10.25 L -2.125 -11.28125 L -3.046875 -8.453125 Z M -5.078125 -9.109375 "/></g></g></g><g fill="#001a6e" fill-opacity="1"><g transform="translate(23.722808, 90.727049)"><g><path d="M 1.390625 -8.484375 L 3.34375 -7.625 L 0.546875 -1.265625 L -1.40625 -2.125 L -0.484375 -4.21875 L -10.28125 -8.515625 L -11.203125 -6.421875 L -13.15625 -7.28125 L -10.359375 -13.640625 L -8.40625 -12.78125 L -9.328125 -10.671875 L 0.46875 -6.375 Z M 1.390625 -8.484375 "/></g></g></g><g fill="#001a6e" fill-opacity="1"><g transform="translate(27.359143, 82.238901)"><g><path d="M -4.9375 -6.546875 C -3.4375 -5.722656 -2.066406 -5.40625 -0.828125 -5.59375 C 0.410156 -5.789062 1.335938 -6.457031 1.953125 -7.59375 C 2.253906 -8.125 2.472656 -8.742188 2.609375 -9.453125 C 2.753906 -10.171875 2.785156 -10.847656 2.703125 -11.484375 L 4.703125 -10.375 C 4.742188 -9.769531 4.675781 -9.097656 4.5 -8.359375 C 4.320312 -7.617188 4.0625 -6.929688 3.71875 -6.296875 C 2.800781 -4.640625 1.429688 -3.648438 -0.390625 -3.328125 C -2.210938 -3.003906 -4.113281 -3.382812 -6.09375 -4.46875 C -8.070312 -5.5625 -9.398438 -6.976562 -10.078125 -8.71875 C -10.753906 -10.46875 -10.625 -12.191406 -9.6875 -13.890625 C -9.34375 -14.515625 -8.925781 -15.085938 -8.4375 -15.609375 C -7.945312 -16.128906 -7.460938 -16.492188 -6.984375 -16.703125 L -4.96875 -15.609375 C -5.5625 -15.296875 -6.09375 -14.921875 -6.5625 -14.484375 C -7.039062 -14.046875 -7.421875 -13.570312 -7.703125 -13.0625 C -8.347656 -11.882812 -8.425781 -10.710938 -7.9375 -9.546875 C -7.457031 -8.390625 -6.457031 -7.390625 -4.9375 -6.546875 Z M -4.9375 -6.546875 "/></g></g></g><g fill="#001a6e" fill-opacity="1"><g transform="translate(33.002887, 71.86665)"><g><path d="M -0.5 -5.3125 L 1.75 -2.515625 L 0.34375 -0.484375 L -9.21875 -12.953125 L -7.640625 -15.234375 L 7.34375 -10.546875 L 5.9375 -8.515625 L 2.515625 -9.640625 Z M -6.484375 -12.71875 C -6.085938 -12.25 -5.6875 -11.769531 -5.28125 -11.28125 C -4.875 -10.789062 -4.476562 -10.3125 -4.09375 -9.84375 L -1.875 -7.078125 L 0.421875 -10.359375 L -2.953125 -11.515625 C -3.578125 -11.734375 -4.203125 -11.953125 -4.828125 -12.171875 C -5.460938 -12.390625 -6.007812 -12.582031 -6.46875 -12.75 Z M -6.484375 -12.71875 "/></g></g></g><g fill="#001a6e" fill-opacity="1"><g transform="translate(40.432803, 61.280423)"><g><path d="M 4.78125 -8.90625 L 6.40625 -7.515625 L 1.140625 -1.34375 L -10.25 -11.0625 L -8.703125 -12.875 L 1.0625 -4.546875 Z M 4.78125 -8.90625 "/></g></g></g><g fill="#001a6e" fill-opacity="1"><g transform="translate(47.147487, 53.497109)"><g/></g></g><g fill="#001a6e" fill-opacity="1"><g transform="translate(51.698792, 48.711328)"><g><path d="M -2.359375 -7.875 C -1.234375 -6.570312 -0.0546875 -5.796875 1.171875 -5.546875 C 2.398438 -5.296875 3.503906 -5.59375 4.484375 -6.4375 C 4.941406 -6.84375 5.359375 -7.351562 5.734375 -7.96875 C 6.109375 -8.582031 6.367188 -9.207031 6.515625 -9.84375 L 8.015625 -8.109375 C 7.847656 -7.523438 7.550781 -6.914062 7.125 -6.28125 C 6.707031 -5.644531 6.222656 -5.085938 5.671875 -4.609375 C 4.234375 -3.367188 2.601562 -2.914062 0.78125 -3.25 C -1.03125 -3.582031 -2.671875 -4.597656 -4.140625 -6.296875 C -5.617188 -8.003906 -6.375 -9.796875 -6.40625 -11.671875 C -6.445312 -13.546875 -5.734375 -15.117188 -4.265625 -16.390625 C -3.734375 -16.847656 -3.144531 -17.234375 -2.5 -17.546875 C -1.851562 -17.867188 -1.269531 -18.050781 -0.75 -18.09375 L 0.75 -16.359375 C 0.0820312 -16.273438 -0.546875 -16.109375 -1.140625 -15.859375 C -1.734375 -15.617188 -2.25 -15.304688 -2.6875 -14.921875 C -3.707031 -14.046875 -4.191406 -12.976562 -4.140625 -11.71875 C -4.085938 -10.46875 -3.492188 -9.1875 -2.359375 -7.875 Z M -2.359375 -7.875 "/></g></g></g><g fill="#001a6e" fill-opacity="1"><g transform="translate(60.524951, 40.919489)"><g><path d="M 7.6875 -14.3125 C 8.96875 -12.4375 9.503906 -10.5625 9.296875 -8.6875 C 9.085938 -6.8125 8.144531 -5.300781 6.46875 -4.15625 C 4.800781 -3.007812 3.054688 -2.679688 1.234375 -3.171875 C -0.578125 -3.671875 -2.125 -4.859375 -3.40625 -6.734375 C -4.695312 -8.617188 -5.238281 -10.492188 -5.03125 -12.359375 C -4.832031 -14.222656 -3.898438 -15.726562 -2.234375 -16.875 C -0.554688 -18.019531 1.191406 -18.347656 3.015625 -17.859375 C 4.835938 -17.367188 6.394531 -16.1875 7.6875 -14.3125 Z M 5.71875 -12.96875 C 4.78125 -14.332031 3.695312 -15.210938 2.46875 -15.609375 C 1.238281 -16.015625 0.078125 -15.847656 -1.015625 -15.109375 C -2.109375 -14.359375 -2.6875 -13.335938 -2.75 -12.046875 C -2.820312 -10.765625 -2.390625 -9.4375 -1.453125 -8.0625 C -0.523438 -6.695312 0.550781 -5.8125 1.78125 -5.40625 C 3.007812 -5.007812 4.171875 -5.1875 5.265625 -5.9375 C 6.359375 -6.675781 6.9375 -7.691406 7 -8.984375 C 7.070312 -10.273438 6.644531 -11.601562 5.71875 -12.96875 Z M 5.71875 -12.96875 "/></g></g></g><g fill="#001a6e" fill-opacity="1"><g transform="translate(72.730958, 32.570205)"><g><path d="M 8.296875 -12.734375 C 9.304688 -10.785156 9.59375 -8.910156 9.15625 -7.109375 C 8.71875 -5.316406 7.613281 -3.957031 5.84375 -3.03125 L 1.5625 -0.8125 L -5.34375 -14.09375 L -1.265625 -16.21875 C 0.597656 -17.175781 2.398438 -17.328125 4.140625 -16.671875 C 5.890625 -16.015625 7.273438 -14.703125 8.296875 -12.734375 Z M -0.265625 -14.328125 L -2.234375 -13.296875 L 2.6875 -3.8125 L 4.859375 -4.9375 C 6.003906 -5.53125 6.695312 -6.445312 6.9375 -7.6875 C 7.175781 -8.9375 6.929688 -10.265625 6.203125 -11.671875 C 5.460938 -13.097656 4.503906 -14.054688 3.328125 -14.546875 C 2.160156 -15.035156 0.960938 -14.960938 -0.265625 -14.328125 Z M -0.265625 -14.328125 "/></g></g></g><g fill="#001a6e" fill-opacity="1"><g transform="translate(84.885845, 26.311104)"><g><path d="M 8.40625 -5.609375 L 9.1875 -3.625 L 1.640625 -0.640625 L -3.84375 -14.5625 L 3.484375 -17.453125 L 4.265625 -15.46875 L -0.84375 -13.453125 L 0.640625 -9.671875 L 5.46875 -11.578125 L 6.25 -9.59375 L 1.421875 -7.6875 L 3.078125 -3.5 Z M 8.40625 -5.609375 "/></g></g></g><g fill="#001a6e" fill-opacity="1"><g transform="translate(94.856331, 22.312716)"><g><path d="M 2.421875 -6.640625 L 3.984375 -1.125 L 1.703125 -0.484375 L -2.390625 -14.875 L 1.265625 -15.921875 C 3.035156 -16.421875 4.476562 -16.441406 5.59375 -15.984375 C 6.707031 -15.523438 7.46875 -14.585938 7.875 -13.171875 C 8.144531 -12.222656 8.164062 -11.347656 7.9375 -10.546875 C 7.71875 -9.753906 7.265625 -9.0625 6.578125 -8.46875 L 11.8125 -3.359375 L 9.15625 -2.609375 L 4.578125 -7.359375 C 4.390625 -7.265625 4.191406 -7.179688 3.984375 -7.109375 C 3.785156 -7.035156 3.578125 -6.96875 3.359375 -6.90625 Z M 1.859375 -13.875 L 0.484375 -13.46875 L 1.84375 -8.65625 L 3.015625 -9 C 4.109375 -9.3125 4.875 -9.75 5.3125 -10.3125 C 5.757812 -10.875 5.867188 -11.554688 5.640625 -12.359375 C 5.421875 -13.140625 4.984375 -13.65625 4.328125 -13.90625 C 3.679688 -14.164062 2.859375 -14.15625 1.859375 -13.875 Z M 1.859375 -13.875 "/></g></g></g><g fill="#001a6e" fill-opacity="1"><g transform="translate(106.757102, 18.946911)"><g><path d="M 9.140625 -5.796875 C 9.367188 -4.484375 9.09375 -3.363281 8.3125 -2.4375 C 7.539062 -1.519531 6.347656 -0.914062 4.734375 -0.625 C 4.109375 -0.519531 3.492188 -0.476562 2.890625 -0.5 C 2.285156 -0.519531 1.675781 -0.601562 1.0625 -0.75 L 0.640625 -3.078125 C 1.234375 -2.835938 1.851562 -2.675781 2.5 -2.59375 C 3.144531 -2.519531 3.785156 -2.539062 4.421875 -2.65625 C 5.285156 -2.8125 5.925781 -3.109375 6.34375 -3.546875 C 6.757812 -3.984375 6.910156 -4.507812 6.796875 -5.125 C 6.710938 -5.59375 6.472656 -5.992188 6.078125 -6.328125 C 5.679688 -6.660156 4.867188 -7.03125 3.640625 -7.4375 C 2.828125 -7.707031 2.226562 -7.925781 1.84375 -8.09375 C 1.46875 -8.269531 1.132812 -8.46875 0.84375 -8.6875 C 0.40625 -9 0.0546875 -9.363281 -0.203125 -9.78125 C -0.472656 -10.195312 -0.65625 -10.679688 -0.75 -11.234375 C -0.96875 -12.441406 -0.71875 -13.476562 0 -14.34375 C 0.71875 -15.207031 1.800781 -15.769531 3.25 -16.03125 C 3.84375 -16.132812 4.414062 -16.171875 4.96875 -16.140625 C 5.53125 -16.117188 6.0625 -16.035156 6.5625 -15.890625 L 7.015625 -13.453125 C 6.578125 -13.710938 6.039062 -13.882812 5.40625 -13.96875 C 4.769531 -14.0625 4.132812 -14.050781 3.5 -13.9375 C 2.78125 -13.8125 2.253906 -13.566406 1.921875 -13.203125 C 1.585938 -12.847656 1.46875 -12.40625 1.5625 -11.875 C 1.644531 -11.425781 1.875 -11.039062 2.25 -10.71875 C 2.632812 -10.40625 3.425781 -10.066406 4.625 -9.703125 C 5.445312 -9.441406 6.054688 -9.21875 6.453125 -9.03125 C 6.847656 -8.851562 7.191406 -8.660156 7.484375 -8.453125 C 7.929688 -8.117188 8.289062 -7.734375 8.5625 -7.296875 C 8.84375 -6.867188 9.035156 -6.367188 9.140625 -5.796875 Z M 9.140625 -5.796875 "/></g></g></g><g fill="#001a6e" fill-opacity="1"><g transform="translate(117.393584, 17.088472)"><g/></g></g><g fill="#001a6e" fill-opacity="1"><g transform="translate(123.924434, 16.250277)"><g><path d="M 4 -3.53125 L 3.0625 -0.0625 L 0.59375 -0.015625 L 5.046875 -15.078125 L 7.8125 -15.140625 L 12.859375 -0.265625 L 10.375 -0.21875 L 9.28125 -3.640625 Z M 6.453125 -12.734375 C 6.316406 -12.140625 6.171875 -11.53125 6.015625 -10.90625 C 5.859375 -10.289062 5.703125 -9.691406 5.546875 -9.109375 L 4.609375 -5.671875 L 8.609375 -5.765625 L 7.5625 -9.1875 C 7.363281 -9.8125 7.171875 -10.441406 6.984375 -11.078125 C 6.796875 -11.710938 6.632812 -12.265625 6.5 -12.734375 Z M 6.453125 -12.734375 "/></g></g></g><g fill="#001a6e" fill-opacity="1"><g transform="translate(136.775981, 15.899578)"><g><path d="M 4.96875 -8.453125 L 4.125 0.390625 L 1.75 0.171875 L 3.15625 -14.734375 L 5.53125 -14.515625 L 10.203125 -5.03125 C 10.359375 -4.757812 10.507812 -4.425781 10.65625 -4.03125 C 10.8125 -3.632812 10.976562 -3.175781 11.15625 -2.65625 L 11.234375 -2.65625 C 11.242188 -3.15625 11.253906 -3.597656 11.265625 -3.984375 C 11.285156 -4.378906 11.3125 -4.726562 11.34375 -5.03125 L 12.171875 -13.890625 L 14.53125 -13.65625 L 13.125 1.25 L 10.765625 1.015625 L 6.078125 -8.4375 C 5.910156 -8.800781 5.75 -9.179688 5.59375 -9.578125 C 5.4375 -9.984375 5.289062 -10.398438 5.15625 -10.828125 L 5.0625 -10.84375 C 5.0625 -10.414062 5.050781 -10.003906 5.03125 -9.609375 C 5.019531 -9.210938 5 -8.828125 4.96875 -8.453125 Z M 4.96875 -8.453125 "/></g></g></g><g fill="#001a6e" fill-opacity="1"><g transform="translate(151.060544, 17.241427)"><g><path d="M 14.53125 -4.5 C 14.0625 -2.351562 13.082031 -0.726562 11.59375 0.375 C 10.101562 1.476562 8.378906 1.816406 6.421875 1.390625 L 1.71875 0.375 L 4.890625 -14.25 L 9.390625 -13.28125 C 11.429688 -12.832031 12.914062 -11.796875 13.84375 -10.171875 C 14.769531 -8.554688 15 -6.664062 14.53125 -4.5 Z M 8.9375 -11.1875 L 6.765625 -11.65625 L 4.5 -1.21875 L 6.875 -0.703125 C 8.144531 -0.421875 9.269531 -0.679688 10.25 -1.484375 C 11.226562 -2.296875 11.882812 -3.472656 12.21875 -5.015625 C 12.550781 -6.585938 12.425781 -7.9375 11.84375 -9.0625 C 11.257812 -10.1875 10.289062 -10.894531 8.9375 -11.1875 Z M 8.9375 -11.1875 "/></g></g></g><g fill="#001a6e" fill-opacity="1"><g transform="translate(164.472698, 20.289322)"><g/></g></g><g fill="#001a6e" fill-opacity="1"><g transform="translate(170.77214, 21.911192)"><g><path d="M 7.109375 -6.296875 L 3.546875 1.515625 L 1.34375 0.578125 L 7.875 -12.921875 L 10.375 -11.84375 L 9.625 -1.3125 C 9.59375 -0.863281 9.550781 -0.429688 9.5 -0.015625 C 9.445312 0.390625 9.390625 0.796875 9.328125 1.203125 L 9.375 1.234375 C 9.394531 1.203125 9.59375 0.945312 9.96875 0.46875 C 10.351562 0 10.695312 -0.394531 11 -0.71875 L 18.09375 -8.5625 L 20.59375 -7.5 L 15.359375 6.546875 L 13.171875 5.609375 L 16.328125 -2.359375 C 16.515625 -2.828125 16.707031 -3.28125 16.90625 -3.71875 C 17.113281 -4.164062 17.328125 -4.59375 17.546875 -5 L 17.5 -5.03125 C 17.207031 -4.644531 16.90625 -4.253906 16.59375 -3.859375 C 16.28125 -3.460938 15.941406 -3.070312 15.578125 -2.6875 L 9.5 4.046875 L 7.21875 3.078125 L 7.859375 -5.96875 C 7.890625 -6.5 7.9375 -7.015625 8 -7.515625 C 8.0625 -8.015625 8.132812 -8.5 8.21875 -8.96875 L 8.171875 -9 C 8.023438 -8.550781 7.863281 -8.097656 7.6875 -7.640625 C 7.519531 -7.191406 7.328125 -6.742188 7.109375 -6.296875 Z M 7.109375 -6.296875 "/></g></g></g><g fill="#001a6e" fill-opacity="1"><g transform="translate(186.848671, 28.946124)"><g><path d="M 9.625 3.078125 L 8.5625 4.9375 L 1.53125 0.875 L 9 -12.09375 L 15.828125 -8.15625 L 14.765625 -6.296875 L 10 -9.046875 L 7.96875 -5.53125 L 12.46875 -2.921875 L 11.40625 -1.078125 L 6.90625 -3.6875 L 4.65625 0.203125 Z M 9.625 3.078125 "/></g></g></g><g fill="#001a6e" fill-opacity="1"><g transform="translate(196.187216, 34.206714)"><g><path d="M 15.109375 1.703125 C 13.816406 3.484375 12.269531 4.578125 10.46875 4.984375 C 8.664062 5.398438 6.953125 5.023438 5.328125 3.859375 L 1.4375 1.03125 L 10.21875 -11.09375 L 13.9375 -8.390625 C 15.625 -7.160156 16.566406 -5.617188 16.765625 -3.765625 C 16.960938 -1.921875 16.410156 -0.0976562 15.109375 1.703125 Z M 12.671875 -6.65625 L 10.875 -7.96875 L 4.609375 0.6875 L 6.578125 2.125 C 7.617188 2.882812 8.75 3.085938 9.96875 2.734375 C 11.195312 2.390625 12.273438 1.578125 13.203125 0.296875 C 14.148438 -1.003906 14.578125 -2.285156 14.484375 -3.546875 C 14.390625 -4.804688 13.785156 -5.84375 12.671875 -6.65625 Z M 12.671875 -6.65625 "/></g></g></g><g fill="#001a6e" fill-opacity="1"><g transform="translate(207.23505, 42.311309)"><g><path d="M 7.65625 3.90625 L 6.234375 5.515625 L 1.03125 0.90625 L 2.453125 -0.703125 L 4.171875 0.828125 L 11.25 -7.171875 L 9.53125 -8.703125 L 10.953125 -10.3125 L 16.15625 -5.703125 L 14.734375 -4.09375 L 13.015625 -5.609375 L 5.9375 2.390625 Z M 7.65625 3.90625 "/></g></g></g><g fill="#001a6e" fill-opacity="1"><g transform="translate(214.20652, 48.367913)"><g><path d="M 7.765625 -2.71875 C 6.515625 -1.53125 5.789062 -0.316406 5.59375 0.921875 C 5.394531 2.160156 5.738281 3.25 6.625 4.1875 C 7.039062 4.632812 7.566406 5.03125 8.203125 5.375 C 8.835938 5.71875 9.472656 5.957031 10.109375 6.09375 L 8.4375 7.65625 C 7.851562 7.507812 7.234375 7.238281 6.578125 6.84375 C 5.929688 6.457031 5.359375 6 4.859375 5.46875 C 3.554688 4.09375 3.03125 2.484375 3.28125 0.640625 C 3.53125 -1.191406 4.472656 -2.878906 6.109375 -4.421875 C 7.753906 -5.972656 9.507812 -6.804688 11.375 -6.921875 C 13.25 -7.035156 14.859375 -6.382812 16.203125 -4.96875 C 16.679688 -4.457031 17.09375 -3.882812 17.4375 -3.25 C 17.78125 -2.625 17.976562 -2.054688 18.03125 -1.546875 L 16.375 0.03125 C 16.269531 -0.625 16.078125 -1.242188 15.796875 -1.828125 C 15.523438 -2.410156 15.1875 -2.914062 14.78125 -3.34375 C 13.863281 -4.320312 12.78125 -4.757812 11.53125 -4.65625 C 10.28125 -4.550781 9.023438 -3.90625 7.765625 -2.71875 Z M 7.765625 -2.71875 "/></g></g></g><g fill="#001a6e" fill-opacity="1"><g transform="translate(222.354139, 56.914106)"><g><path d="M 5.203125 1.171875 L 1.859375 2.4375 L 0.359375 0.46875 L 15.15625 -4.8125 L 16.828125 -2.625 L 7.796875 10.21875 L 6.296875 8.25 L 8.40625 5.359375 Z M 14.09375 -2.296875 C 13.53125 -2.046875 12.953125 -1.800781 12.359375 -1.5625 C 11.765625 -1.332031 11.1875 -1.109375 10.625 -0.890625 L 7.3125 0.375 L 9.734375 3.546875 L 11.875 0.6875 C 12.269531 0.164062 12.664062 -0.359375 13.0625 -0.890625 C 13.46875 -1.421875 13.820312 -1.878906 14.125 -2.265625 Z M 14.09375 -2.296875 "/></g></g></g><g fill="#001a6e" fill-opacity="1"><g transform="translate(230.165327, 67.222584)"><g><path d="M 7.015625 7.28125 L 5.1875 8.40625 L 0.921875 1.5 L 13.65625 -6.359375 L 14.90625 -4.34375 L 4 2.390625 Z M 7.015625 7.28125 "/></g></g></g><g fill="#001a6e" fill-opacity="1"><g transform="translate(235.523507, 75.995383)"><g/></g></g><g fill="#001a6e" fill-opacity="1"><g transform="translate(238.700222, 81.769139)"><g><path d="M 16.3125 0.15625 C 16.914062 1.582031 17.070312 2.800781 16.78125 3.8125 C 16.488281 4.820312 15.753906 5.578125 14.578125 6.078125 C 13.785156 6.410156 13.050781 6.515625 12.375 6.390625 C 11.707031 6.265625 11.140625 5.921875 10.671875 5.359375 L 10.640625 5.375 C 10.890625 6.164062 10.816406 6.910156 10.421875 7.609375 C 10.035156 8.316406 9.394531 8.863281 8.5 9.25 C 7.257812 9.769531 6.117188 9.742188 5.078125 9.171875 C 4.035156 8.597656 3.164062 7.492188 2.46875 5.859375 L 0.6875 1.625 L 14.46875 -4.203125 Z M 9.640625 0.421875 L 10.484375 2.421875 C 10.816406 3.210938 11.226562 3.742188 11.71875 4.015625 C 12.21875 4.285156 12.785156 4.285156 13.421875 4.015625 C 14.066406 3.742188 14.472656 3.335938 14.640625 2.796875 C 14.804688 2.265625 14.734375 1.628906 14.421875 0.890625 L 13.53125 -1.21875 Z M 3.5 3.015625 L 4.359375 5.0625 C 4.742188 5.96875 5.226562 6.585938 5.8125 6.921875 C 6.394531 7.253906 7.019531 7.28125 7.6875 7 C 8.351562 6.726562 8.769531 6.265625 8.9375 5.609375 C 9.101562 4.953125 9.003906 4.191406 8.640625 3.328125 L 7.75 1.21875 Z M 3.5 3.015625 "/></g></g></g><g fill="#001a6e" fill-opacity="1"><g transform="translate(243.522491, 93.336907)"><g><path d="M 4.5625 7.296875 L 2.515625 7.9375 L 0.421875 1.3125 L 2.46875 0.671875 L 3.15625 2.859375 L 13.34375 -0.375 L 12.65625 -2.5625 L 14.6875 -3.21875 L 16.78125 3.40625 L 14.75 4.0625 L 14.0625 1.875 L 3.875 5.109375 Z M 4.5625 7.296875 "/></g></g></g><g fill="#001a6e" fill-opacity="1"><g transform="translate(246.360905, 102.15775)"><g><path d="M 4.28125 9.15625 L 2.1875 9.625 L 0.390625 1.71875 L 14.984375 -1.609375 L 15.515625 0.703125 L 3.015625 3.5625 Z M 4.28125 9.15625 "/></g></g></g><g fill="#001a6e" fill-opacity="1"><g transform="translate(248.647416, 112.1061)"><g><path d="M 3.46875 9.484375 L 1.34375 9.78125 L 0.234375 1.75 L 15.0625 -0.296875 L 15.390625 2.0625 L 2.6875 3.8125 Z M 3.46875 9.484375 "/></g></g></g><g fill="#001a6e" fill-opacity="1"><g transform="translate(250.042741, 122.238244)"><g><path d="M 2.59375 8.203125 L 0.453125 8.3125 L 0.078125 1.375 L 2.21875 1.265625 L 2.34375 3.5625 L 13.015625 2.984375 L 12.890625 0.6875 L 15.03125 0.5625 L 15.40625 7.5 L 13.265625 7.625 L 13.140625 5.328125 L 2.46875 5.90625 Z M 2.59375 8.203125 "/></g></g></g><g fill="#001a6e" fill-opacity="1"><g transform="translate(250.699889, 131.399974)"><g><path d="M 8.6875 4.546875 L -0.1875 4.140625 L -0.078125 1.765625 L 14.875 2.453125 L 14.765625 4.828125 L 5.53125 9.953125 C 5.257812 10.117188 4.929688 10.285156 4.546875 10.453125 C 4.160156 10.617188 3.710938 10.804688 3.203125 11.015625 L 3.203125 11.09375 C 3.703125 11.070312 4.144531 11.0625 4.53125 11.0625 C 4.925781 11.0625 5.273438 11.066406 5.578125 11.078125 L 14.453125 11.484375 L 14.34375 13.859375 L -0.609375 13.171875 L -0.5 10.796875 L 8.71875 5.6875 C 9.070312 5.488281 9.441406 5.300781 9.828125 5.125 C 10.222656 4.957031 10.632812 4.789062 11.0625 4.625 L 11.0625 4.53125 C 10.644531 4.5625 10.238281 4.578125 9.84375 4.578125 C 9.445312 4.578125 9.0625 4.566406 8.6875 4.546875 Z M 8.6875 4.546875 "/></g></g></g><g fill="#001a6e" fill-opacity="1"><g transform="translate(250.044402, 145.735686)"><g><path d="M 6.375 8.25 L 5.5 13.515625 L -1.21875 12.390625 C -1.425781 11.566406 -1.550781 10.738281 -1.59375 9.90625 C -1.644531 9.070312 -1.609375 8.296875 -1.484375 7.578125 C -1.148438 5.535156 -0.210938 4.03125 1.328125 3.0625 C 2.878906 2.09375 4.84375 1.804688 7.21875 2.203125 C 9.601562 2.597656 11.363281 3.515625 12.5 4.953125 C 13.644531 6.398438 14.039062 8.160156 13.6875 10.234375 C 13.570312 10.921875 13.378906 11.609375 13.109375 12.296875 C 12.847656 12.984375 12.507812 13.648438 12.09375 14.296875 L 9.8125 13.921875 C 10.28125 13.285156 10.660156 12.625 10.953125 11.9375 C 11.253906 11.25 11.460938 10.585938 11.578125 9.953125 C 11.816406 8.515625 11.523438 7.320312 10.703125 6.375 C 9.890625 5.4375 8.59375 4.816406 6.8125 4.515625 C 5.019531 4.222656 3.578125 4.390625 2.484375 5.015625 C 1.390625 5.648438 0.722656 6.691406 0.484375 8.140625 C 0.421875 8.515625 0.390625 8.890625 0.390625 9.265625 C 0.398438 9.648438 0.441406 9.988281 0.515625 10.28125 L 3.78125 10.828125 L 4.265625 7.890625 Z M 6.375 8.25 "/></g></g></g><g fill="#001a6e" fill-opacity="1"><g transform="translate(247.652686, 159.259107)"><g/></g></g><g fill="#001a6e" fill-opacity="1"><g transform="translate(246.076415, 165.705807)"><g><path d="M -1.109375 10.046875 L -3.140625 9.359375 L -0.5625 1.671875 L 13.625 6.4375 L 12.875 8.6875 L 0.71875 4.609375 Z M -1.109375 10.046875 "/></g></g></g><g fill="#001a6e" fill-opacity="1"><g transform="translate(242.84793, 175.389032)"><g><path d="M -1.96875 9.90625 L -3.9375 9.046875 L -0.703125 1.625 L 13.015625 7.59375 L 12.0625 9.765625 L 0.3125 4.65625 Z M -1.96875 9.90625 "/></g></g></g><g fill="#001a6e" fill-opacity="1"><g transform="translate(238.841927, 184.744739)"><g><path d="M 4.9375 6.5625 C 3.4375 5.726562 2.066406 5.40625 0.828125 5.59375 C -0.410156 5.789062 -1.34375 6.453125 -1.96875 7.578125 C -2.257812 8.117188 -2.472656 8.742188 -2.609375 9.453125 C -2.753906 10.171875 -2.785156 10.84375 -2.703125 11.46875 L -4.703125 10.375 C -4.753906 9.769531 -4.691406 9.097656 -4.515625 8.359375 C -4.335938 7.617188 -4.070312 6.929688 -3.71875 6.296875 C -2.800781 4.628906 -1.429688 3.632812 0.390625 3.3125 C 2.210938 3 4.109375 3.390625 6.078125 4.484375 C 8.054688 5.566406 9.382812 6.976562 10.0625 8.71875 C 10.738281 10.46875 10.609375 12.195312 9.671875 13.90625 C 9.328125 14.53125 8.90625 15.097656 8.40625 15.609375 C 7.914062 16.128906 7.4375 16.492188 6.96875 16.703125 L 4.953125 15.59375 C 5.546875 15.300781 6.078125 14.929688 6.546875 14.484375 C 7.023438 14.046875 7.40625 13.570312 7.6875 13.0625 C 8.34375 11.894531 8.425781 10.726562 7.9375 9.5625 C 7.457031 8.394531 6.457031 7.394531 4.9375 6.5625 Z M 4.9375 6.5625 "/></g></g></g></g></g><g fill="#001a6e" fill-opacity="1"><g transform="translate(134.501831, 296.560889)"><g><path d="M 9.140625 0.75 C 8.628906 1.75 7.878906 2.363281 6.890625 2.59375 C 5.898438 2.820312 4.785156 2.625 3.546875 2 C 3.054688 1.75 2.613281 1.457031 2.21875 1.125 C 1.820312 0.800781 1.453125 0.429688 1.109375 0.015625 L 2.015625 -1.765625 C 2.273438 -1.296875 2.609375 -0.863281 3.015625 -0.46875 C 3.421875 -0.0820312 3.867188 0.226562 4.359375 0.46875 C 5.015625 0.800781 5.59375 0.925781 6.09375 0.84375 C 6.601562 0.769531 6.976562 0.492188 7.21875 0.015625 C 7.40625 -0.347656 7.445312 -0.742188 7.34375 -1.171875 C 7.25 -1.597656 6.882812 -2.265625 6.25 -3.171875 C 5.84375 -3.773438 5.554688 -4.226562 5.390625 -4.53125 C 5.222656 -4.84375 5.09375 -5.144531 5 -5.4375 C 4.851562 -5.875 4.800781 -6.300781 4.84375 -6.71875 C 4.882812 -7.144531 5.007812 -7.5625 5.21875 -7.96875 C 5.6875 -8.894531 6.390625 -9.46875 7.328125 -9.6875 C 8.265625 -9.90625 9.285156 -9.734375 10.390625 -9.171875 C 10.835938 -8.941406 11.242188 -8.675781 11.609375 -8.375 C 11.972656 -8.070312 12.285156 -7.742188 12.546875 -7.390625 L 11.59375 -5.515625 C 11.4375 -5.921875 11.164062 -6.316406 10.78125 -6.703125 C 10.394531 -7.085938 9.957031 -7.398438 9.46875 -7.640625 C 8.925781 -7.921875 8.453125 -8.023438 8.046875 -7.953125 C 7.640625 -7.878906 7.332031 -7.640625 7.125 -7.234375 C 6.945312 -6.890625 6.90625 -6.507812 7 -6.09375 C 7.101562 -5.6875 7.457031 -5.054688 8.0625 -4.203125 C 8.488281 -3.609375 8.789062 -3.144531 8.96875 -2.8125 C 9.144531 -2.488281 9.28125 -2.179688 9.375 -1.890625 C 9.519531 -1.441406 9.570312 -1 9.53125 -0.5625 C 9.488281 -0.125 9.359375 0.3125 9.140625 0.75 Z M 9.140625 0.75 "/></g></g></g><g fill="#001a6e" fill-opacity="1"><g transform="translate(143.259432, 300.885247)"><g><path d="M 8.265625 -10.0625 C 8.128906 -9.726562 7.894531 -9.492188 7.5625 -9.359375 C 7.238281 -9.222656 6.910156 -9.226562 6.578125 -9.375 C 6.242188 -9.507812 6.007812 -9.738281 5.875 -10.0625 C 5.738281 -10.394531 5.738281 -10.726562 5.875 -11.0625 C 6.019531 -11.40625 6.257812 -11.640625 6.59375 -11.765625 C 6.925781 -11.898438 7.257812 -11.898438 7.59375 -11.765625 C 7.925781 -11.617188 8.15625 -11.382812 8.28125 -11.0625 C 8.414062 -10.738281 8.410156 -10.40625 8.265625 -10.0625 Z M 6.609375 -7.03125 L 3.09375 1.3125 L 1.375 0.578125 L 4.890625 -7.765625 Z M 6.609375 -7.03125 "/></g></g></g><g fill="#001a6e" fill-opacity="1"><g transform="translate(147.991255, 302.975495)"><g><path d="M 5.328125 -5.25 L 3.1875 1.078125 L 1.421875 0.484375 L 4.328125 -8.09375 L 6.09375 -7.5 L 5.875 -6.875 L 5.90625 -6.8125 C 6.394531 -6.957031 6.878906 -7.03125 7.359375 -7.03125 C 7.847656 -7.03125 8.320312 -6.953125 8.78125 -6.796875 C 9.613281 -6.515625 10.160156 -6.066406 10.421875 -5.453125 C 10.691406 -4.847656 10.675781 -4.09375 10.375 -3.1875 L 8.34375 2.828125 L 6.59375 2.21875 L 8.421875 -3.21875 C 8.640625 -3.851562 8.695312 -4.332031 8.59375 -4.65625 C 8.488281 -4.976562 8.210938 -5.210938 7.765625 -5.359375 C 7.347656 -5.503906 6.898438 -5.5625 6.421875 -5.53125 C 5.941406 -5.507812 5.578125 -5.414062 5.328125 -5.25 Z M 5.328125 -5.25 "/></g></g></g><g fill="#001a6e" fill-opacity="1"><g transform="translate(158.136445, 306.33776)"><g><path d="M 7.28125 1.3125 C 6.957031 1.414062 6.5625 1.472656 6.09375 1.484375 C 5.632812 1.492188 5.179688 1.445312 4.734375 1.34375 C 3.515625 1.039062 2.648438 0.390625 2.140625 -0.609375 C 1.628906 -1.617188 1.539062 -2.816406 1.875 -4.203125 C 2.207031 -5.597656 2.832031 -6.625 3.75 -7.28125 C 4.675781 -7.9375 5.75 -8.117188 6.96875 -7.828125 C 7.414062 -7.722656 7.84375 -7.566406 8.25 -7.359375 C 8.65625 -7.148438 8.957031 -6.9375 9.15625 -6.71875 L 8.734375 -4.96875 C 8.585938 -5.207031 8.320312 -5.4375 7.9375 -5.65625 C 7.5625 -5.882812 7.160156 -6.050781 6.734375 -6.15625 C 5.941406 -6.34375 5.296875 -6.242188 4.796875 -5.859375 C 4.296875 -5.472656 3.929688 -4.800781 3.703125 -3.84375 C 3.460938 -2.832031 3.472656 -2.03125 3.734375 -1.4375 C 3.992188 -0.84375 4.503906 -0.453125 5.265625 -0.265625 C 5.671875 -0.171875 6.101562 -0.132812 6.5625 -0.15625 C 7.019531 -0.1875 7.394531 -0.257812 7.6875 -0.375 Z M 7.28125 1.3125 "/></g></g></g><g fill="#001a6e" fill-opacity="1"><g transform="translate(166.471423, 308.356562)"><g><path d="M 8.03125 0.890625 C 7.550781 1.003906 7.082031 1.066406 6.625 1.078125 C 6.175781 1.097656 5.734375 1.070312 5.296875 1 C 3.878906 0.78125 2.832031 0.207031 2.15625 -0.71875 C 1.488281 -1.644531 1.265625 -2.835938 1.484375 -4.296875 C 1.710938 -5.734375 2.265625 -6.820312 3.140625 -7.5625 C 4.023438 -8.300781 5.097656 -8.570312 6.359375 -8.375 C 7.453125 -8.207031 8.242188 -7.753906 8.734375 -7.015625 C 9.234375 -6.273438 9.390625 -5.320312 9.203125 -4.15625 C 9.171875 -3.894531 9.113281 -3.625 9.03125 -3.34375 C 8.945312 -3.0625 8.851562 -2.785156 8.75 -2.515625 L 3.1875 -3.359375 C 3.1875 -2.566406 3.378906 -1.941406 3.765625 -1.484375 C 4.148438 -1.035156 4.75 -0.75 5.5625 -0.625 C 5.96875 -0.570312 6.398438 -0.554688 6.859375 -0.578125 C 7.316406 -0.597656 7.796875 -0.664062 8.296875 -0.78125 Z M 7.578125 -4.765625 C 7.671875 -5.328125 7.578125 -5.804688 7.296875 -6.203125 C 7.015625 -6.597656 6.578125 -6.84375 5.984375 -6.9375 C 5.335938 -7.03125 4.789062 -6.894531 4.34375 -6.53125 C 3.894531 -6.164062 3.582031 -5.585938 3.40625 -4.796875 L 7.4375 -4.1875 C 7.46875 -4.28125 7.492188 -4.375 7.515625 -4.46875 C 7.546875 -4.570312 7.566406 -4.671875 7.578125 -4.765625 Z M 7.578125 -4.765625 "/></g></g></g><g fill="#001a6e" fill-opacity="1"><g transform="translate(175.974973, 309.742575)"><g/></g></g><g fill="#001a6e" fill-opacity="1"><g transform="translate(182.135128, 310.223738)"><g/></g></g><g fill="#001a6e" fill-opacity="1"><g transform="translate(188.312037, 310.352158)"><g/></g></g><g fill="#001a6e" fill-opacity="1"><g transform="translate(194.486913, 310.127998)"><g/></g></g><g fill="#001a6e" fill-opacity="1"><g transform="translate(200.72561, 309.607554)"><g><path d="M 8.09375 -3.109375 L 8.375 -1.421875 L 0.984375 -0.171875 L 0.640625 -2.1875 C 1.398438 -3.195312 1.96875 -3.960938 2.34375 -4.484375 C 2.71875 -5.003906 3.03125 -5.460938 3.28125 -5.859375 C 3.894531 -6.796875 4.316406 -7.597656 4.546875 -8.265625 C 4.773438 -8.941406 4.847656 -9.539062 4.765625 -10.0625 C 4.648438 -10.707031 4.375 -11.171875 3.9375 -11.453125 C 3.507812 -11.742188 2.960938 -11.832031 2.296875 -11.71875 C 1.785156 -11.632812 1.273438 -11.4375 0.765625 -11.125 C 0.253906 -10.8125 -0.160156 -10.445312 -0.484375 -10.03125 L -0.8125 -11.890625 C -0.425781 -12.273438 0.03125 -12.601562 0.5625 -12.875 C 1.101562 -13.15625 1.648438 -13.34375 2.203125 -13.4375 C 3.421875 -13.644531 4.421875 -13.484375 5.203125 -12.953125 C 5.984375 -12.429688 6.476562 -11.578125 6.6875 -10.390625 C 6.84375 -9.460938 6.660156 -8.429688 6.140625 -7.296875 C 5.628906 -6.171875 4.539062 -4.492188 2.875 -2.265625 L 2.953125 -2.234375 Z M 8.09375 -3.109375 "/></g></g></g><g fill="#001a6e" fill-opacity="1"><g transform="translate(210.689591, 307.947771)"><g><path d="M 8.265625 -8.84375 C 8.835938 -6.800781 8.894531 -5.140625 8.4375 -3.859375 C 7.988281 -2.578125 7.035156 -1.738281 5.578125 -1.34375 C 4.117188 -0.9375 2.867188 -1.164062 1.828125 -2.03125 C 0.796875 -2.894531 -0.00390625 -4.351562 -0.578125 -6.40625 C -1.148438 -8.476562 -1.207031 -10.148438 -0.75 -11.421875 C -0.300781 -12.691406 0.648438 -13.53125 2.109375 -13.9375 C 3.566406 -14.332031 4.816406 -14.097656 5.859375 -13.234375 C 6.898438 -12.367188 7.703125 -10.90625 8.265625 -8.84375 Z M 6.375 -8.3125 C 5.9375 -9.90625 5.40625 -11.015625 4.78125 -11.640625 C 4.164062 -12.273438 3.429688 -12.476562 2.578125 -12.25 C 1.722656 -12.007812 1.191406 -11.460938 0.984375 -10.609375 C 0.773438 -9.753906 0.890625 -8.523438 1.328125 -6.921875 C 1.765625 -5.347656 2.289062 -4.242188 2.90625 -3.609375 C 3.519531 -2.984375 4.253906 -2.789062 5.109375 -3.03125 C 5.960938 -3.257812 6.492188 -3.800781 6.703125 -4.65625 C 6.921875 -5.519531 6.8125 -6.738281 6.375 -8.3125 Z M 6.375 -8.3125 "/></g></g></g><g fill="#001a6e" fill-opacity="1"><g transform="translate(222.146444, 304.699393)"><g><path d="M 7 -4.546875 L 7.625 -2.9375 L 1.0625 -0.40625 L 0.4375 -2.015625 L 2.828125 -2.9375 L 0.078125 -10.078125 L -2.4375 -9.109375 L -2.96875 -10.5 C -2.757812 -10.582031 -2.566406 -10.671875 -2.390625 -10.765625 C -2.210938 -10.867188 -2.039062 -10.972656 -1.875 -11.078125 C -1.71875 -11.210938 -1.570312 -11.351562 -1.4375 -11.5 C -1.3125 -11.65625 -1.222656 -11.816406 -1.171875 -11.984375 C -1.078125 -12.210938 -1.023438 -12.421875 -1.015625 -12.609375 C -1.003906 -12.804688 -1.035156 -12.992188 -1.109375 -13.171875 L 0.6875 -13.859375 L 4.625 -3.625 Z M 7 -4.546875 "/></g></g></g><g fill="#001a6e" fill-opacity="1"><g transform="translate(230.867409, 301.364497)"><g><path d="M -2.890625 -8.21875 C -3.429688 -9.3125 -3.535156 -10.390625 -3.203125 -11.453125 C -2.867188 -12.515625 -2.148438 -13.316406 -1.046875 -13.859375 C 0.203125 -14.484375 1.390625 -14.488281 2.515625 -13.875 C 3.640625 -13.257812 4.640625 -12.070312 5.515625 -10.3125 C 6.503906 -8.3125 6.863281 -6.570312 6.59375 -5.09375 C 6.332031 -3.613281 5.457031 -2.503906 3.96875 -1.765625 C 3.582031 -1.578125 3.171875 -1.421875 2.734375 -1.296875 C 2.296875 -1.171875 1.847656 -1.09375 1.390625 -1.0625 L 0.53125 -2.765625 C 1.082031 -2.765625 1.566406 -2.804688 1.984375 -2.890625 C 2.410156 -2.984375 2.789062 -3.113281 3.125 -3.28125 C 4.101562 -3.769531 4.691406 -4.445312 4.890625 -5.3125 C 5.097656 -6.175781 4.914062 -7.191406 4.34375 -8.359375 C 4.113281 -7.941406 3.832031 -7.570312 3.5 -7.25 C 3.164062 -6.925781 2.785156 -6.660156 2.359375 -6.453125 C 1.285156 -5.910156 0.28125 -5.800781 -0.65625 -6.125 C -1.601562 -6.445312 -2.347656 -7.144531 -2.890625 -8.21875 Z M -1.203125 -9.21875 C -0.847656 -8.5 -0.394531 -8.039062 0.15625 -7.84375 C 0.71875 -7.65625 1.347656 -7.734375 2.046875 -8.078125 C 2.429688 -8.265625 2.765625 -8.503906 3.046875 -8.796875 C 3.328125 -9.097656 3.53125 -9.410156 3.65625 -9.734375 C 3.039062 -10.960938 2.394531 -11.800781 1.71875 -12.25 C 1.050781 -12.695312 0.359375 -12.738281 -0.359375 -12.375 C -0.972656 -12.070312 -1.347656 -11.632812 -1.484375 -11.0625 C -1.628906 -10.5 -1.535156 -9.882812 -1.203125 -9.21875 Z M -1.203125 -9.21875 "/></g></g></g><g clip-path="url(#6de470ec85)"><path fill="#211f4e" d="M 194.027344 305.707031 L 194.027344 310.058594 L 189.675781 310.058594 L 189.675781 314.410156 L 185.324219 314.410156 L 185.324219 310.058594 L 180.972656 310.058594 L 180.972656 305.707031 L 185.324219 305.707031 L 185.324219 301.355469 L 189.675781 301.355469 L 189.675781 305.707031 Z M 194.027344 305.707031 " fill-opacity="1" fill-rule="nonzero"/></g><path fill="#cfb37a" d="M 194.625 198.96875 C 195.75 198.453125 197.203125 197.9375 198.515625 197.164062 C 201.75 195.265625 201.9375 191.632812 198.9375 189.3125 C 196.289062 187.273438 193.148438 186.828125 189.9375 186.523438 C 184.851562 186.007812 179.695312 185.726562 174.703125 184.695312 C 172.148438 184.179688 169.617188 182.585938 167.554688 180.898438 C 160.242188 174.898438 162.140625 163.742188 171.046875 160.25 C 173.695312 159.21875 176.671875 158.75 179.53125 158.539062 C 182.085938 158.351562 183.984375 160.0625 185.507812 161.984375 C 186.304688 162.96875 185.460938 163.648438 184.734375 164.046875 C 182.625 165.171875 180.351562 165.898438 178.007812 164.984375 C 174.09375 163.460938 171.890625 165.289062 170.882812 167.679688 C 169.101562 171.898438 169.59375 174.453125 172.617188 176.492188 C 176.039062 178.8125 179.953125 179.515625 183.984375 179.726562 C 188.414062 179.984375 192.890625 179.960938 197.15625 181.4375 C 202.125 183.171875 205.875 186.054688 206.929688 191.585938 C 207.726562 195.757812 205.5 200.304688 201.632812 202.109375 C 201.257812 202.273438 200.648438 202.25 200.273438 202.0625 C 198.304688 201.054688 196.40625 199.953125 194.625 198.96875 Z M 194.625 198.96875 " fill-opacity="1" fill-rule="nonzero"/><path fill="#cfb37a" d="M 196.804688 155.304688 C 197.039062 155.445312 197.25 155.609375 197.953125 156.054688 C 194.34375 156.054688 191.203125 156.054688 187.898438 156.054688 C 188.320312 155.117188 188.765625 154.15625 189.164062 153.195312 C 189.585938 152.234375 190.21875 151.765625 191.367188 151.671875 C 197.507812 151.179688 198.773438 147.101562 198.632812 142.484375 C 198.609375 141.359375 198.445312 140.210938 198.46875 139.085938 C 198.515625 135.757812 200.273438 133.90625 203.601562 134.140625 C 205.734375 134.28125 207.984375 134.65625 209.882812 135.570312 C 215.203125 138.148438 220.359375 141.054688 225.585938 143.820312 C 226.945312 144.546875 226.335938 145.273438 225.539062 145.882812 C 223.453125 147.429688 220.992188 148.085938 218.460938 148.0625 C 215.742188 148.015625 213.023438 147.546875 210.304688 147.265625 C 209.742188 147.21875 209.179688 147.148438 208.5 147.382812 C 209.625 147.851562 210.75 148.296875 211.828125 148.742188 C 209.460938 152.46875 205.992188 151.460938 202.59375 150.828125 C 202.570312 150.992188 202.523438 151.15625 202.5 151.296875 C 203.296875 151.671875 204.070312 152.046875 205.054688 152.492188 C 202.335938 153.546875 200.4375 156.546875 196.945312 154.71875 C 196.898438 154.90625 196.851562 155.117188 196.804688 155.304688 Z M 196.804688 155.304688 " fill-opacity="1" fill-rule="nonzero"/><path fill="#cfb37a" d="M 177.117188 156.125 C 177.492188 155.632812 177.679688 155.398438 177.84375 155.164062 C 174.398438 156.5 172.476562 153.617188 169.757812 152.46875 C 170.765625 152.046875 171.5625 151.71875 172.382812 151.367188 C 172.40625 151.203125 172.40625 151.039062 172.429688 150.898438 C 169.007812 151.273438 165.328125 152.679688 163.054688 148.742188 C 164.0625 148.320312 165.1875 147.875 166.289062 147.429688 C 160.078125 147.921875 153.773438 149.796875 148.289062 144.945312 C 148.476562 144.570312 148.5 144.359375 148.617188 144.289062 C 154.640625 140.375 160.757812 136.625 167.765625 134.679688 C 169.21875 134.28125 170.835938 134.023438 172.3125 134.1875 C 175.476562 134.5625 176.8125 136.929688 176.460938 140.492188 C 176.273438 142.34375 176.273438 144.265625 176.554688 146.09375 C 177.023438 149.117188 179.296875 151.132812 182.320312 151.578125 C 185.273438 152.023438 186.210938 152.960938 186.75 156.125 C 183.609375 156.125 180.46875 156.125 177.117188 156.125 Z M 177.117188 156.125 " fill-opacity="1" fill-rule="nonzero"/><path fill="#cfb37a" d="M 179.0625 187.578125 C 178.125 188.140625 177.164062 188.632812 176.320312 189.289062 C 173.15625 191.773438 173.414062 195.335938 176.859375 197.328125 C 179.742188 198.992188 182.953125 199.554688 186.234375 199.601562 C 189.890625 199.648438 193.523438 199.8125 196.875 201.59375 C 201.1875 203.890625 203.460938 208.390625 202.59375 213.195312 C 202.429688 214.132812 202.054688 215.070312 201.5625 215.867188 C 199.828125 218.632812 198.890625 218.820312 196.125 217.296875 C 195.28125 216.828125 194.414062 216.382812 193.359375 215.84375 C 193.875 215.609375 194.226562 215.445312 194.601562 215.28125 C 196.101562 214.625 197.648438 213.898438 197.765625 212.046875 C 197.90625 210.03125 197.25 208.179688 195.515625 206.9375 C 193.523438 205.507812 191.203125 205.132812 188.859375 205.15625 C 184.851562 205.179688 180.867188 205.109375 177.046875 203.726562 C 175.921875 203.328125 174.796875 202.882812 173.765625 202.320312 C 167.648438 198.992188 166.265625 191.46875 170.695312 186.125 C 171.28125 185.421875 171.75 185.210938 172.6875 185.5625 C 174.75 186.335938 176.882812 186.898438 179.0625 187.578125 Z M 179.0625 187.578125 " fill-opacity="1" fill-rule="nonzero"/><g clip-path="url(#0e5c9ed56c)"><path fill="#cfb37a" d="M 112.5 152.492188 C 124.3125 151.0625 135.632812 148.71875 146.742188 145.203125 C 148.734375 149.140625 152.554688 148.929688 156.46875 149.28125 C 155.765625 149.632812 155.320312 149.890625 154.828125 150.101562 C 146.507812 153.40625 138.023438 156.171875 129.09375 157.273438 C 124.78125 157.8125 120.421875 157.929688 116.320312 156.054688 C 114.75 155.304688 113.507812 154.273438 112.5 152.492188 Z M 112.5 152.492188 " fill-opacity="1" fill-rule="nonzero"/></g><g clip-path="url(#e14c4eed45)"><path fill="#cfb37a" d="M 262.265625 152.46875 C 259.734375 155.515625 256.734375 156.96875 253.242188 157.367188 C 248.53125 157.90625 243.9375 156.96875 239.367188 155.984375 C 232.242188 154.460938 225.351562 152.164062 218.226562 149.328125 C 222.117188 148.90625 225.960938 149.234375 228.09375 145.25 C 239.109375 148.648438 250.40625 151.085938 262.265625 152.46875 Z M 262.265625 152.46875 " fill-opacity="1" fill-rule="nonzero"/></g><path fill="#cfb37a" d="M 195.796875 179.421875 C 197.789062 178.601562 199.992188 177.945312 201.914062 176.820312 C 205.945312 174.523438 206.390625 169.039062 202.992188 165.898438 C 201.492188 164.492188 199.828125 163.953125 197.835938 164.773438 C 195.5625 165.710938 193.359375 165.359375 191.203125 164.421875 C 188.953125 163.4375 188.8125 162.5 190.523438 160.8125 C 192.75 158.609375 195.351562 158.1875 198.398438 158.703125 C 202.734375 159.429688 206.882812 160.507812 209.578125 164.234375 C 213.890625 170.164062 212.882812 178.90625 204.515625 183.101562 C 204.1875 183.265625 203.648438 183.171875 203.296875 183.007812 C 200.765625 181.835938 198.257812 180.617188 195.796875 179.421875 Z M 195.796875 179.421875 " fill-opacity="1" fill-rule="nonzero"/><path fill="#cfb37a" d="M 175.03125 204.195312 C 176.835938 204.828125 178.640625 205.460938 180.65625 206.140625 C 178.851562 207.40625 177.632812 208.90625 177.445312 211.085938 C 177.328125 212.5625 177.773438 213.664062 178.992188 214.414062 C 181.148438 215.75 183.539062 216.125 186.046875 216.054688 C 188.976562 215.960938 191.835938 216.382812 194.460938 217.835938 C 200.0625 220.929688 200.90625 228.804688 196.078125 232.53125 C 195.1875 233.210938 194.460938 233.351562 193.476562 232.765625 C 192.609375 232.25 191.625 231.992188 190.5 231.546875 C 191.320312 231.101562 192.070312 230.75 192.75 230.304688 C 196.265625 228.054688 196.195312 223.695312 192.515625 221.75 C 191.320312 221.117188 189.820312 221.023438 188.4375 220.859375 C 185.460938 220.484375 182.34375 220.601562 179.507812 219.804688 C 172.007812 217.695312 169.96875 210.21875 175.03125 204.195312 Z M 175.03125 204.195312 " fill-opacity="1" fill-rule="nonzero"/><path fill="#cfb37a" d="M 164.601562 152.1875 C 155.859375 160.625 132.679688 164.867188 125.929688 159.03125 C 127.734375 158.726562 129.375 158.445312 130.992188 158.140625 C 140.390625 156.289062 149.554688 153.640625 158.226562 149.445312 C 159.679688 148.742188 160.992188 149.164062 162.1875 150.125 C 163.007812 150.804688 163.804688 151.507812 164.601562 152.1875 Z M 164.601562 152.1875 " fill-opacity="1" fill-rule="nonzero"/><path fill="#cfb37a" d="M 209.859375 152.515625 C 211.148438 151.4375 212.015625 150.6875 212.90625 149.984375 C 214.078125 149.046875 215.367188 148.835938 216.726562 149.492188 C 226.757812 154.273438 237.328125 157.273438 248.320312 158.890625 C 248.367188 158.890625 248.390625 158.960938 248.765625 159.335938 C 246.679688 159.992188 244.851562 160.695312 242.929688 161.140625 C 235.054688 162.992188 227.671875 160.953125 220.523438 157.90625 C 216.9375 156.335938 213.539062 154.390625 209.859375 152.515625 Z M 209.859375 152.515625 " fill-opacity="1" fill-rule="nonzero"/><path fill="#cfb37a" d="M 201.5625 156.101562 C 202.6875 155.328125 203.367188 154.8125 204.09375 154.34375 C 206.25 152.960938 208.171875 152.632812 210.679688 154.15625 C 217.476562 158.257812 224.765625 161.304688 232.898438 162.664062 C 231.070312 164.304688 228.960938 164.726562 226.78125 164.914062 C 221.625 165.359375 216.820312 164.117188 212.273438 161.796875 C 208.757812 160.039062 205.335938 158.117188 201.5625 156.101562 Z M 201.5625 156.101562 " fill-opacity="1" fill-rule="nonzero"/><path fill="#cfb37a" d="M 172.757812 156.195312 C 167.25 159.40625 161.90625 162.945312 155.554688 164.398438 C 152.015625 165.21875 148.429688 165.40625 144.914062 164.304688 C 143.90625 164 142.992188 163.4375 141.5625 162.804688 C 150.632812 161.210938 158.34375 157.765625 165.726562 153.40625 C 166.265625 153.101562 167.132812 152.867188 167.648438 153.078125 C 169.453125 153.804688 171.1875 154.71875 172.945312 155.585938 C 172.875 155.773438 172.828125 155.984375 172.757812 156.195312 Z M 172.757812 156.195312 " fill-opacity="1" fill-rule="nonzero"/><path fill="#cfb37a" d="M 177.75 220.460938 C 179.203125 220.976562 180.539062 221.46875 181.875 221.9375 C 178.40625 226.578125 179.765625 230.164062 185.4375 231.570312 C 187.148438 231.992188 188.929688 232.109375 190.617188 232.578125 C 195.46875 233.9375 197.4375 238.953125 194.882812 243.148438 C 193.359375 245.632812 192 246.007812 189.234375 244.484375 C 189.84375 244.109375 190.40625 243.804688 190.921875 243.476562 C 192.65625 242.351562 193.382812 240.6875 192.9375 238.601562 C 192.5625 236.773438 191.15625 236 189.539062 235.671875 C 187.804688 235.320312 186.023438 235.320312 184.3125 234.921875 C 180.351562 233.960938 177.117188 232.0625 176.039062 227.726562 C 175.40625 225.101562 176.320312 222.828125 177.75 220.460938 Z M 177.75 220.460938 " fill-opacity="1" fill-rule="nonzero"/><g clip-path="url(#c31192d423)"><path fill="#cfb37a" d="M 183.960938 236.09375 C 181.078125 238.742188 181.429688 241.976562 184.804688 243.804688 C 185.953125 244.414062 187.242188 244.765625 188.4375 245.257812 C 192.140625 246.757812 193.734375 250.039062 192.65625 253.835938 C 192 256.15625 190.546875 257.421875 187.992188 257.421875 C 187.851562 259.4375 187.734375 261.382812 187.59375 263.351562 C 187.476562 263.351562 187.359375 263.351562 187.242188 263.351562 C 187.171875 262.4375 187.101562 261.523438 187.03125 260.609375 C 186.890625 258.992188 187.101562 257.515625 184.757812 256.835938 C 182.296875 256.109375 181.429688 251.609375 182.789062 248.820312 C 183.09375 248.210938 183.515625 247.671875 183.960938 246.992188 C 184.59375 247.273438 185.179688 247.554688 185.789062 247.835938 C 182.648438 251.65625 183.070312 255.804688 186.65625 256.8125 C 186.65625 255.40625 186.679688 254 186.65625 252.59375 C 186.632812 251.234375 186.539062 249.875 186.46875 248.421875 C 187.101562 248.421875 187.59375 248.421875 188.039062 248.421875 C 188.109375 248.492188 188.179688 248.539062 188.179688 248.585938 C 188.179688 251.328125 188.179688 254.046875 188.179688 256.859375 C 189.796875 256.648438 190.734375 255.710938 191.109375 254.304688 C 191.625 252.359375 191.671875 250.320312 190.054688 248.867188 C 189.09375 248 187.734375 247.554688 186.539062 246.945312 C 184.734375 246.03125 182.695312 245.398438 181.171875 244.132812 C 179.132812 242.445312 178.851562 239.867188 179.460938 237.359375 C 180.09375 234.734375 180.585938 234.640625 183.960938 236.09375 Z M 183.960938 236.09375 " fill-opacity="1" fill-rule="nonzero"/></g><g clip-path="url(#47f6e8b335)"><path fill="#cfb37a" d="M 187.453125 143.023438 C 184.546875 143.023438 182.039062 140.492188 181.992188 137.5625 C 181.96875 134.515625 184.476562 131.984375 187.5 132.007812 C 190.453125 132.007812 192.914062 134.46875 192.960938 137.445312 C 193.007812 140.421875 190.429688 143.023438 187.453125 143.023438 Z M 187.453125 143.023438 " fill-opacity="1" fill-rule="nonzero"/></g><path fill="#cfb37a" d="M 189.703125 178.414062 C 188.109375 178.414062 186.9375 178.414062 185.4375 178.414062 C 185.4375 177.335938 185.4375 176.28125 185.4375 175.25 C 185.4375 173.539062 185.554688 171.828125 185.414062 170.117188 C 185.15625 167.164062 185.859375 164.492188 187.453125 161.9375 C 191.085938 167.023438 188.882812 172.789062 189.703125 178.414062 Z M 189.703125 178.414062 " fill-opacity="1" fill-rule="nonzero"/><path fill="#cfb37a" d="M 186.84375 146.28125 C 185.367188 145.671875 183.84375 145.132812 183.679688 143.234375 C 186.234375 143.234375 188.695312 143.234375 191.132812 143.234375 C 191.085938 144.734375 191.039062 144.804688 188.15625 146.398438 C 190.40625 147.734375 190.171875 150.570312 187.570312 154.226562 C 184.921875 151.390625 184.617188 148.179688 186.84375 146.28125 Z M 186.84375 146.28125 " fill-opacity="1" fill-rule="nonzero"/><path fill="#cfb37a" d="M 189.164062 198.546875 C 188.273438 198.546875 187.546875 198.546875 186.820312 198.546875 C 186.492188 198.546875 186.164062 198.476562 185.671875 198.429688 C 185.671875 194.84375 185.671875 191.328125 185.671875 187.695312 C 186.75 187.695312 187.921875 187.695312 189.1875 187.695312 C 189.164062 191.257812 189.164062 194.773438 189.164062 198.546875 Z M 189.164062 198.546875 " fill-opacity="1" fill-rule="nonzero"/><path fill="#cfb37a" d="M 193.171875 157.4375 C 195.703125 157.132812 198.234375 156.78125 200.765625 156.546875 C 201.164062 156.5 201.609375 156.828125 202.007812 157.039062 C 206.953125 159.640625 211.875 162.242188 217.265625 165.101562 C 215.34375 165.3125 213.726562 165.570312 212.109375 165.640625 C 211.78125 165.664062 211.335938 165.078125 211.054688 164.703125 C 206.882812 159.148438 201.257812 157.25 194.554688 158.023438 C 194.109375 158.070312 193.640625 157.976562 193.195312 157.953125 C 193.171875 157.742188 193.171875 157.578125 193.171875 157.4375 Z M 193.171875 157.4375 " fill-opacity="1" fill-rule="nonzero"/><path fill="#cfb37a" d="M 181.710938 157.835938 C 181.40625 157.882812 181.101562 157.976562 180.796875 157.929688 C 173.71875 157.203125 167.789062 159.265625 163.40625 165.078125 C 163.171875 165.382812 162.65625 165.640625 162.304688 165.617188 C 160.851562 165.5 159.398438 165.289062 157.921875 164.773438 C 162.046875 162.664062 166.21875 160.671875 170.25 158.445312 C 172.664062 157.109375 174.960938 156.21875 177.75 156.992188 C 179.015625 157.34375 180.398438 157.25 181.734375 157.34375 C 181.734375 157.507812 181.734375 157.671875 181.710938 157.835938 Z M 181.710938 157.835938 " fill-opacity="1" fill-rule="nonzero"/><path fill="#cfb37a" d="M 185.882812 206.234375 C 186.9375 206.234375 187.898438 206.234375 188.90625 206.234375 C 188.90625 209.398438 188.90625 212.445312 188.90625 215.632812 C 187.851562 215.632812 186.9375 215.632812 185.882812 215.632812 C 185.882812 212.515625 185.882812 209.46875 185.882812 206.234375 Z M 185.882812 206.234375 " fill-opacity="1" fill-rule="nonzero"/><path fill="#cfb37a" d="M 186.164062 221.234375 C 187.03125 221.234375 187.804688 221.234375 188.648438 221.234375 C 188.648438 224.234375 188.71875 227.1875 188.554688 230.117188 C 188.53125 230.492188 187.21875 230.773438 186.164062 231.242188 C 186.164062 227.609375 186.164062 224.515625 186.164062 221.234375 Z M 186.164062 221.234375 " fill-opacity="1" fill-rule="nonzero"/><path fill="#cfb37a" d="M 188.367188 243.921875 C 187.570312 243.921875 187.101562 243.921875 186.492188 243.921875 C 186.375 241.414062 186.28125 239 186.164062 236.421875 C 186.914062 236.421875 187.59375 236.421875 188.367188 236.421875 C 188.367188 238.859375 188.367188 241.320312 188.367188 243.921875 Z M 188.367188 243.921875 " fill-opacity="1" fill-rule="nonzero"/><path fill="#cfb37a" d="M 188.179688 156.78125 C 189.679688 157.226562 191.15625 157.671875 192.9375 158.210938 C 191.25 159.570312 190.007812 160.578125 188.414062 161.890625 C 188.132812 160.25 187.898438 158.796875 187.664062 157.320312 C 187.828125 157.132812 188.015625 156.945312 188.179688 156.78125 Z M 188.179688 156.78125 " fill-opacity="1" fill-rule="nonzero"/><path fill="#cfb37a" d="M 187.335938 156.664062 C 187.03125 158.585938 186.84375 159.875 186.632812 161.351562 C 185.179688 160.226562 183.984375 159.289062 182.320312 157.976562 C 184.03125 157.53125 185.414062 157.15625 187.335938 156.664062 Z M 187.335938 156.664062 " fill-opacity="1" fill-rule="nonzero"/></svg>